<?xml version="1.0" encoding="UTF-8"?><svg xmlns="http://www.w3.org/2000/svg" xmlns:xlink="http://www.w3.org/1999/xlink" height="55.0" preserveAspectRatio="xMidYMid meet" version="1.0" viewBox="0.0 0.0 85.0 55.0" width="85.0" zoomAndPan="magnify"><g><g id="change1_1"><path d="M80 15L80 0 75 0 70 0 70 5 65 5 65 10 55 10 55 5 50 5 50 0 45 0 40 0 40 15 35 15 35 25 40 25 40 30 25 30 25 35 20 35 20 40 15 40 15 35 15 30 20 30 20 25 25 25 25 20 20 20 20 15 10 15 10 20 5 20 5 25 0 25 0 45 5 45 5 50 10 50 10 55 20 55 65 55 65 50 70 50 70 45 65 45 65 40 70 40 70 35 75 35 75 30 80 30 80 25 85 25 85 15z" fill="#FFBBEA"/></g><g id="change2_1"><path d="M30 40H40V45H30z" fill="#57BBFF"/></g><g id="change2_2"><path d="M40 45H45V50H40z" fill="#57BBFF"/></g><g id="change2_3"><path d="M10 15H20V20H10z" fill="#57BBFF"/></g><g id="change2_4"><path d="M20 20H25V25H20z" fill="#57BBFF"/></g><g id="change2_5"><path d="M65 45H70V50H65z" fill="#57BBFF"/></g><g id="change3_1"><path d="M50 25H55V30H50z" fill="#E24795"/></g><g id="change3_2"><path d="M65 25H70V30H65z" fill="#E24795"/></g><g id="change4_1"><path d="M50 20H55V25H50z" fill="#5211BA"/></g><g id="change4_2"><path d="M65 20H70V25H65z" fill="#5211BA"/></g><g fill="#5211BA" id="change4_3"><path d="M40 25H45V30H40z"/><path d="M45 30H50V35H45z"/><path d="M50 35H70V40H50z"/><path d="M20 40L15 40 15 50 10 50 10 55 65 55 65 50 20 50z"/><path d="M70 30H75V35H70z"/><path d="M75 25H80V30H75z"/></g><g fill="#9F8FFF" id="change5_1"><path d="M25 35L20 35 20 50 25 50 40 50 40 45 25 45z"/><path d="M10 40L5 40 5 35 10 35 10 30 5 30 5 25 0 25 0 45 5 45 5 50 15 50 15 45 10 45z"/><path d="M5 20H10V25H5z"/><path d="M15 25H20V30H15z"/><path d="M45 25H50V30H45z"/><path d="M70 25H75V30H70z"/><path d="M50 30H70V35H50z"/><path d="M40 20L40 15 35 15 35 25 40 25 45 25 45 20z"/><path d="M40 0H45V15H40z"/><path d="M65 5H70V10H65z"/><path d="M70 0H75V5H70z"/><path d="M60 40H65V50H60z"/></g><g id="change2_6"><path d="M65 5H70V10H65z" fill="#57BBFF"/></g><g id="change2_7"><path d="M80 15H85V25H80z" fill="#57BBFF"/></g></g></svg>