<?xml version="1.0" encoding="UTF-8"?><svg xmlns="http://www.w3.org/2000/svg" xmlns:xlink="http://www.w3.org/1999/xlink" height="110.0" preserveAspectRatio="xMidYMid meet" version="1.0" viewBox="0.0 0.0 110.0 110.0" width="110.0" zoomAndPan="magnify"><g><g id="change1_1"><path d="M105 40L105 30 100 30 100 25 100 20 95 20 95 15 90 15 90 10 80 10 80 5 70 5 70 0 40 0 40 5 30 5 30 10 20 10 20 15 15 15 15 20 10 20 10 25 10 30 5 30 5 40 0 40 0 70 5 70 5 75 5 80 10 80 10 85 10 90 15 90 15 95 20 95 20 100 30 100 30 105 40 105 40 110 70 110 70 105 80 105 80 100 90 100 90 95 95 95 95 90 100 90 100 85 100 80 105 80 105 75 105 70 110 70 110 40z" fill="#FFED95"/></g><g fill="#F7E05A" id="change2_1"><path d="M105 40L105 50 100 50 100 60 105 60 105 70 110 70 110 40z"/><path d="M95 85L90 85 90 90 80 90 80 85 65 85 65 80 60 80 60 75 55 75 55 70 60 70 60 65 55 65 55 60 65 60 65 65 70 65 70 75 80 75 80 60 75 60 75 55 70 55 70 50 55 50 55 55 45 55 45 65 50 65 50 75 50 80 45 80 45 90 45 95 50 95 50 90 60 90 60 95 70 95 70 100 60 100 60 95 50 95 50 100 45 100 45 95 35 95 35 90 30 90 30 80 35 80 35 70 30 70 30 65 25 65 25 80 15 80 15 60 10 60 10 55 10 50 15 50 15 35 20 35 20 25 25 25 25 20 30 20 30 15 40 15 40 10 50 10 50 5 70 5 70 0 40 0 40 5 30 5 30 10 20 10 20 15 15 15 15 20 10 20 10 30 5 30 5 40 0 40 0 70 5 70 5 80 10 80 10 90 15 90 15 95 20 95 20 100 30 100 30 105 40 105 40 110 70 110 70 105 80 105 80 100 90 100 90 95 95 95 95 90 100 90 100 80 95 80z"/><path d="M100 40L105 40 105 30 100 30 95 30 95 35 100 35z"/><path d="M30 60H35V65H30z"/><path d="M35 50H40V55H35z"/><path d="M40 70H45V75H40z"/><path d="M60 70H65V75H60z"/><path d="M90 55L95 55 95 45 95 35 90 35 85 35 85 40 90 40 90 45 85 45 85 50 80 50 80 60 90 60z"/><path d="M65 40H70V45H65z"/><path d="M100 65L100 60 90 60 90 65 85 65 85 75 80 75 80 85 90 85 90 75 100 75 100 80 105 80 105 70 100 70z"/><path d="M45 20H50V25H45z"/><path d="M30 30H40V40H30z"/><path d="M60 15H70V25H60z"/><path d="M85 20H95V30H85z"/></g><g fill="#F0CC4C" id="change3_1"><path d="M80 10H85V15H80z"/><path d="M5 30H10V40H5z"/><path d="M10 20H15V30H10z"/><path d="M15 15H20V20H15z"/><path d="M20 10H30V15H20z"/><path d="M30 5H40V10H30z"/><path d="M40 0H50V5H40z"/><path d="M5 65L5 40 0 40 0 70 5 70 5 80 10 80 10 65z"/><path d="M10 80H15V90H10z"/><path d="M10 60H15V65H10z"/><path d="M10 40H15V50H10z"/><path d="M25 95L25 90 15 90 15 95 20 95 20 100 30 100 30 95z"/><path d="M30 100H40V105H30z"/><path d="M40 105H70V110H40z"/><path d="M70 100H80V105H70z"/><path d="M80 95H90V100H80z"/><path d="M90 90H95V95H90z"/><path d="M95 85H100V90H95z"/></g></g></svg>